<svg width="112" height="101" viewBox="0 0 112 101" fill="none" xmlns="http://www.w3.org/2000/svg">
<path d="M16.6682 83.4722C16.6937 83.1982 16.7283 82.9844 16.7283 82.7691C16.7313 79.7942 16.7313 76.8193 16.7283 73.8459C16.7283 73.0284 17.0589 72.4066 17.827 72.0829C18.592 71.7637 19.3284 71.9037 19.9927 72.3674C20.3158 72.5918 20.4872 72.9441 20.5293 73.337C20.5714 73.7134 20.6104 74.0882 20.6104 74.4646C20.6179 76.5964 20.6104 78.7283 20.6134 80.8631C20.621 83.4059 20.642 85.9518 20.6495 88.4946C20.6525 89.3377 20.657 90.1808 20.6074 91.0194C20.4722 93.4493 19.7568 95.6684 18.114 97.5413C17.1611 98.6268 16.0054 99.4307 14.6707 99.9787C12.9949 100.667 11.259 101.015 9.43443 100.891C7.70903 100.775 6.14746 100.209 4.69259 99.3178C3.26328 98.4431 2.08947 97.323 1.27787 95.8521C0.679695 94.7666 0.353553 93.5938 0.16418 92.3864C-0.0883173 90.7604 -0.0702815 89.1344 0.364074 87.5371C1.01185 85.1493 2.25329 83.15 4.42206 81.8191C5.98664 80.8571 7.70152 80.3693 9.55767 80.3166C12.1217 80.2428 14.2063 81.2545 16.0069 82.9723C16.1451 83.1018 16.2804 83.2358 16.4187 83.3653C16.4548 83.3848 16.5074 83.3984 16.6682 83.4722ZM16.8996 90.914C16.853 90.4006 16.829 89.8887 16.7508 89.3798C16.5374 88.0038 15.9753 86.7813 14.9939 85.7696C13.6172 84.3514 11.9248 83.7115 9.9289 83.838C7.29271 84.0036 5.47263 85.3345 4.36946 87.6485C3.51878 89.4295 3.55786 91.2587 4.1876 93.109C5.11192 95.8205 7.85482 97.7099 10.7931 97.4539C12.7214 97.2853 14.2725 96.4708 15.4342 94.9322C16.3405 93.7413 16.8034 92.3969 16.8996 90.914Z" fill="#0055D2"/>
<path d="M96.3145 91.9949C96.3535 92.6032 96.4918 93.097 96.7127 93.5682C97.837 95.9815 99.7472 97.2974 102.418 97.5503C104.139 97.7114 105.734 97.3154 107.205 96.4302C107.759 96.096 108.308 95.7979 108.998 95.8265C109.781 95.8581 110.758 96.6907 110.648 97.5608C110.602 97.9192 110.477 98.2218 110.214 98.4672C109.407 99.2259 108.46 99.7559 107.418 100.128C106.049 100.616 104.636 100.9 103.181 100.897C100.61 100.897 98.2939 100.11 96.2528 98.565C94.1968 97.0098 93.0726 94.9156 92.757 92.3984C92.4864 90.253 92.6683 88.1423 93.522 86.1324C94.6642 83.4526 96.6767 81.7032 99.4827 80.836C100.823 80.422 102.19 80.2218 103.598 80.3437C105.714 80.5304 107.564 81.3298 109.115 82.757C110.765 84.2701 111.634 86.1851 111.921 88.3651C112.01 89.0396 112.007 89.7306 111.992 90.4156C111.974 91.2663 111.362 91.87 110.511 91.9151C109.801 91.9543 109.088 91.9814 108.377 91.9859C104.579 91.9934 100.783 91.9889 96.9848 91.9889C96.7774 91.9949 96.57 91.9949 96.3145 91.9949ZM96.3896 88.8484C100.387 88.8484 104.357 88.8484 108.337 88.8484C108.347 88.7505 108.358 88.6828 108.358 88.6165C108.355 88.5322 108.347 88.4449 108.332 88.3606C107.866 85.9578 106.505 84.3815 104.046 83.7944C101.477 83.1801 98.5223 84.3243 97.1276 86.5028C96.6767 87.2059 96.4031 87.9677 96.3896 88.8484Z" fill="#0055D2"/>
<path d="M72.8939 91.9949C73.1178 93.2731 73.6198 94.33 74.3878 95.2679C75.4519 96.5642 76.8737 97.2131 78.5029 97.4841C80.5199 97.8183 82.3655 97.3576 84.0729 96.2827C84.5027 96.0117 84.9446 95.8084 85.4811 95.8295C86.1214 95.8536 86.6234 96.1246 87.0006 96.6094C87.4741 97.2131 87.3133 98.0908 86.6595 98.6358C85.6029 99.5105 84.39 100.096 83.0674 100.451C81.7328 100.81 80.3636 100.968 78.9869 100.865C75.8998 100.634 73.2922 99.3976 71.2932 97.0339C70.2577 95.8084 69.6745 94.3571 69.4266 92.7838C69.0929 90.6806 69.2206 88.6015 69.9601 86.5961C71.0663 83.5941 73.2185 81.6625 76.3161 80.7728C78.1482 80.2489 80.0014 80.1224 81.868 80.6358C83.2132 81.0076 84.4141 81.643 85.4751 82.5388C87.2186 84.0142 88.1669 85.9202 88.5021 88.1363C88.6058 88.8108 88.6088 89.5018 88.6193 90.1868C88.6374 91.4198 87.8228 91.9392 86.8413 91.9392C82.3851 91.9362 77.9273 91.9708 73.474 91.9949C73.3027 91.9949 73.1313 91.9949 72.8939 91.9949ZM84.901 88.8514C84.919 88.7641 84.9401 88.7009 84.9431 88.6331C84.9461 88.5307 84.9461 88.4253 84.9296 88.3245C84.7267 86.965 84.133 85.8163 83.0403 84.9386C81.5674 83.7582 79.8932 83.3969 78.0505 83.7447C75.9659 84.1376 74.3307 85.1463 73.4334 87.1201C73.1885 87.6605 72.942 88.2086 73.0351 88.8484C77.006 88.8514 80.9467 88.8514 84.901 88.8514Z" fill="#0055D2"/>
<path d="M45.9653 90.3614C45.9263 93.6058 44.9584 96.114 42.8963 98.1691C41.5737 99.4864 39.9235 100.23 38.1019 100.625C35.5153 101.183 33.0219 100.944 30.6532 99.7438C27.8141 98.3046 26.1639 95.9831 25.5416 92.9208C25.0832 90.655 25.2425 88.4434 26.1684 86.3071C27.6308 82.9317 30.2624 81.0739 33.8981 80.5304C34.3956 80.4566 34.8976 80.3723 35.395 80.3618C35.9286 80.3512 36.4697 80.4009 36.9987 80.4596C38.7557 80.6598 40.3849 81.2109 41.8262 82.2512C43.9138 83.7582 45.2124 85.7696 45.6963 88.2778C45.8511 89.0832 45.9082 89.9053 45.9653 90.3614ZM29.0811 90.0317C29.0811 91.9979 29.4298 93.4387 30.1197 94.467C31.6061 96.6861 33.7222 97.6843 36.3975 97.4314C38.1755 97.2658 39.6559 96.4769 40.7366 95.0541C41.9885 93.4071 42.3793 91.5312 42.1027 89.5093C41.8968 88.0023 41.2987 86.6849 40.182 85.604C37.1189 82.6366 32.7619 83.5218 30.5315 86.1761C29.4794 87.4302 29.1232 88.9357 29.0811 90.0317Z" fill="#0055D2"/>
<path d="M54.9455 97.347C55.2145 97.347 55.4024 97.347 55.5888 97.347C58.3347 97.347 61.0761 97.344 63.822 97.3501C64.1887 97.3501 64.5584 97.3922 64.9221 97.4494C65.5038 97.5413 65.9712 97.9643 66.0509 98.5349C66.105 98.9399 66.0975 99.369 66.0253 99.774C65.9141 100.405 65.4617 100.75 64.8365 100.87C64.6636 100.902 64.4878 100.906 64.3119 100.906C60.018 100.909 55.727 100.899 51.4331 100.917C50.7327 100.92 50.0143 100.54 49.7663 99.8763C49.5905 99.4051 49.586 98.9188 49.7874 98.4611C49.9452 98.0998 50.136 97.737 50.3765 97.4208C53.0999 93.8437 55.8383 90.2756 58.5691 86.706C59.0967 86.0135 59.6287 85.3224 60.1533 84.6299C60.2645 84.4809 60.3577 84.3213 60.5155 84.0834C60.2419 84.0834 60.0586 84.0834 59.8722 84.0834C57.0046 84.0834 54.1369 84.0864 51.2693 84.0804C50.9747 84.0804 50.6726 84.0382 50.3855 83.9705C49.8039 83.829 49.4266 83.4601 49.344 82.8639C49.2974 82.5237 49.2718 82.1654 49.329 81.8311C49.4612 81.0437 49.9933 80.6147 50.8349 80.565C51.2557 80.5394 51.6796 80.5259 52.1004 80.5259C55.8127 80.5228 59.525 80.5228 63.2373 80.5259C63.5349 80.5259 63.834 80.5575 64.1316 80.5575C65.3926 80.5499 65.86 81.6821 65.7202 82.608C65.6451 83.1154 65.4001 83.5595 65.0875 83.9675C63.9302 85.476 62.7729 86.983 61.6232 88.4946C59.5025 91.2798 57.3863 94.0725 55.2701 96.8608C55.1725 96.9857 55.0898 97.1303 54.9455 97.347Z" fill="#0055D2"/>
<path d="M63.3005 38.7552C59.0576 38.8771 55.948 41.9544 55.3934 46.5809C54.8163 51.397 58.488 55.7405 63.3155 55.9512C67.8109 56.1485 71.5893 52.2356 71.5923 47.3833C71.5953 42.403 67.9627 38.6212 63.3005 38.7552Z" fill="#0055D2"/>
<path d="M51.4782 0C32.1081 0 16.4052 15.7297 16.4052 35.1329C16.4052 54.536 32.1081 70.2657 51.4782 70.2657H86.5512V35.1314C86.5512 15.7282 70.8483 0 51.4782 0ZM76.0501 46.62C76.0395 49.6898 75.4699 52.6586 73.5326 55.1172C70.2171 59.3236 65.7473 60.6801 60.6192 59.6759C55.6218 58.6973 52.0598 54.9004 51.2017 49.8478C50.4442 45.3915 51.2257 41.2724 54.5021 37.9497C58.9539 33.4361 65.9382 33.4587 70.441 37.9075C70.6514 38.1153 70.8769 38.3065 71.3293 38.719C71.3668 38.0897 71.4059 37.7434 71.4059 37.3972C71.4104 33.808 71.3924 30.2173 71.4164 26.6282C71.4285 24.8712 72.6624 23.8866 74.2976 24.26C75.2595 24.4783 75.8126 25.0805 75.9238 26.0922C75.996 26.7561 76.0486 27.4261 76.0486 28.093C76.0606 34.2687 76.0711 40.4443 76.0501 46.62Z" fill="#0055D2"/>
</svg>
